<svg id="Layer_1" data-name="Layer 1" xmlns="http://www.w3.org/2000/svg" viewBox="0 0 97.93 101.02"><defs><style>.cls-1{fill:#2a4b5b;}.cls-2,.cls-5{fill:#f1f4f7;}.cls-2,.cls-3,.cls-4,.cls-5,.cls-6{stroke:#2a4b5b;stroke-width:2px;}.cls-2,.cls-3{stroke-linejoin:round;}.cls-3,.cls-6{fill:none;}.cls-3,.cls-4,.cls-5,.cls-6{stroke-linecap:round;}.cls-4{fill:#e9d61d;}.cls-4,.cls-5,.cls-6{stroke-miterlimit:10;}.cls-7{fill:#fff;}</style></defs><title>precios</title><path class="cls-1" d="M48.91-9l-2.76.7a0.33,0.33,0,0,0-.24.25L45.16-4.41a0.33,0.33,0,0,1-.65,0L43.78-8a0.33,0.33,0,0,0-.24-0.25l-2.75-.71a0.33,0.33,0,0,1,0-.64l2.68-.66a0.33,0.33,0,0,0,.24-0.25l0.79-3.67a0.33,0.33,0,0,1,.65,0l0.69,3.44a0.71,0.71,0,0,0,.29.43l2.76,0.71A0.33,0.33,0,0,1,48.91-9Z" transform="translate(1 14.43)"/><path class="cls-1" d="M53.4-2.32l-1.91.49a0.23,0.23,0,0,0-.17.17L50.82,0.82a0.23,0.23,0,0,1-.45,0L49.86-1.65a0.23,0.23,0,0,0-.17-0.17l-1.9-.49a0.23,0.23,0,0,1,0-.44l1.85-.46a0.23,0.23,0,0,0,.17-0.17l0.54-2.54a0.23,0.23,0,0,1,.45,0l0.52,2.5a0.23,0.23,0,0,0,.17.17L53.4-2.76A0.23,0.23,0,0,1,53.4-2.32Z" transform="translate(1 14.43)"/><path class="cls-1" d="M41.52-2.41l-1.91.49a0.23,0.23,0,0,0-.17.17L38.94,0.73a0.23,0.23,0,0,1-.45,0L38-1.74a0.23,0.23,0,0,0-.17-0.17l-1.9-.49a0.23,0.23,0,0,1,0-.44l1.85-.46a0.23,0.23,0,0,0,.17-0.17L38.48-6a0.23,0.23,0,0,1,.45,0l0.52,2.5a0.23,0.23,0,0,0,.17.17l1.91,0.49A0.23,0.23,0,0,1,41.52-2.41Z" transform="translate(1 14.43)"/><path class="cls-2" d="M32.14,24.2a45.63,45.63,0,0,1,5.32-1.12,48,48,0,0,1,15.28.2c17,3,29.68,15.05,29.68,29.46,0,7.51-3.45,14.38-9.15,19.66L74,73.12l2.39,2.39a3.21,3.21,0,0,1,0,4.54l-4.6,4.6a3.21,3.21,0,0,1-4.54,0l-5-5.23a45.71,45.71,0,0,1-17.77,3.51,45.43,45.43,0,0,1-19-4.06l-4,4.54a3.21,3.21,0,0,1-4.54,0l-4.6-4.6a3.21,3.21,0,0,1,0-4.54l1.71-1.71,0.87-.9A28.21,28.21,0,0,1,7.61,59.88L7.06,60H3.21A3.21,3.21,0,0,1,0,56.75V48.58a3.21,3.21,0,0,1,3.21-3.21H7.06l0.62,0C9.68,39,14.2,33.5,20.35,29.46l1.29-1.21V18.06a10,10,0,0,1,9.25,6.16Z" transform="translate(1 14.43)"/><circle class="cls-1" cx="19.13" cy="55.78" r="1.84"/><path class="cls-3" d="M82.43,52.46c12.36,0,8.27-11,4.84-9.11S91.08,56,95.93,44.91" transform="translate(1 14.43)"/><path class="cls-4" d="M37.77,29.39A8.91,8.91,0,1,1,52,30" transform="translate(1 14.43)"/><path class="cls-5" d="M35.06,30.78c8-3,11.76-2.91,19.48.25" transform="translate(1 14.43)"/><line class="cls-6" x1="45.69" y1="15.68" x2="45.69" y2="25.68"/><line class="cls-6" x1="50.19" y1="18.93" x2="50.19" y2="26.43"/><line class="cls-6" x1="41.19" y1="18.93" x2="41.19" y2="26.43"/><path class="cls-7" d="M45.4,18.62a0.49,0.49,0,0,1,.49.49v0.13a4,4,0,0,1,1.38.46,0.64,0.64,0,0,1-.3,1.21,0.7,0.7,0,0,1-.33-0.08,3.61,3.61,0,0,0-.79-0.32v1.44c1.44,0.39,2.06,1,2.06,2a2,2,0,0,1-2,1.88v0.5a0.49,0.49,0,1,1-1,0V25.85A4.75,4.75,0,0,1,43,25.19,0.65,0.65,0,0,1,43.37,24a0.69,0.69,0,0,1,.37.12,3.63,3.63,0,0,0,1.21.53V23.12c-1.37-.37-2-0.89-2-2a2,2,0,0,1,2-1.87V19.11A0.49,0.49,0,0,1,45.4,18.62ZM45,21.69V20.41a0.63,0.63,0,0,0-.66.6A0.72,0.72,0,0,0,45,21.69Zm0.89,1.66v1.32a0.64,0.64,0,0,0,.67-0.62A0.75,0.75,0,0,0,45.85,23.36Z" transform="translate(1 14.43)"/></svg>