<svg id="Layer_1" data-name="Layer 1" xmlns="http://www.w3.org/2000/svg" viewBox="0 0 129.81 80.54"><defs><style>.cls-1{fill:#2a4b5b;}.cls-2{fill:#f1f4f7;stroke-linejoin:round;}.cls-2,.cls-3,.cls-4,.cls-5,.cls-6{stroke:#2a4b5b;}.cls-2,.cls-5,.cls-6{stroke-width:2px;}.cls-3{fill:#e9d61d;}.cls-3,.cls-4,.cls-5,.cls-6{stroke-miterlimit:10;}.cls-3,.cls-4{stroke-width:1.5px;}.cls-4{fill:#4dbc88;}.cls-5{fill:#fff;}.cls-6{fill:#42c1c9;}</style></defs><title>faq</title><path class="cls-1" d="M11.85,7.15l-4,1a0.48,0.48,0,0,0-.35.37L6.43,13.73a0.48,0.48,0,0,1-.94,0L4.43,8.55a0.48,0.48,0,0,0-.35-0.37l-4-1a0.48,0.48,0,0,1,0-.93L4,5.28a0.48,0.48,0,0,0,.35-0.36L5.48-.4a0.48,0.48,0,0,1,.94,0L7.5,4.83a0.48,0.48,0,0,0,.35.37l4,1A0.48,0.48,0,0,1,11.85,7.15Z" transform="translate(12.8 0.78)"/><path class="cls-1" d="M15.24,18.54l-2.76.7a0.33,0.33,0,0,0-.24.25L11.5,23.08a0.33,0.33,0,0,1-.65,0L10.12,19.5a0.33,0.33,0,0,0-.24-0.25l-2.75-.71a0.33,0.33,0,0,1,0-.64l2.68-.66A0.33,0.33,0,0,0,10.06,17l0.79-3.67a0.33,0.33,0,0,1,.65,0l0.69,3.44a0.71,0.71,0,0,0,.29.43l2.76,0.71A0.33,0.33,0,0,1,15.24,18.54Z" transform="translate(12.8 0.78)"/><path class="cls-1" d="M20.54,7.1l-1.91.49a0.23,0.23,0,0,0-.17.17L18,10.24a0.23,0.23,0,0,1-.45,0L17,7.77a0.23,0.23,0,0,0-.17-0.17l-1.9-.49a0.23,0.23,0,0,1,0-.44l1.85-.46A0.23,0.23,0,0,0,17,6L17.5,3.5a0.23,0.23,0,0,1,.45,0L18.46,6a0.23,0.23,0,0,0,.17.17l1.91,0.49A0.23,0.23,0,0,1,20.54,7.1Z" transform="translate(12.8 0.78)"/><path class="cls-2" d="M28.46,69.47H10L3.78,78.76l-6.19-9.29h-0.1a9.29,9.29,0,0,1-9.29-9.29V38.51a9.29,9.29,0,0,1,9.29-9.29h31a9.29,9.29,0,0,1,9.29,9.29V60.18A9.29,9.29,0,0,1,28.46,69.47Z" transform="translate(12.8 0.78)"/><path class="cls-3" d="M12.68,52.83a1.56,1.56,0,0,1-1.53-1.39l-0.28-1.93a1.4,1.4,0,0,1,1.31-1.7c2.47-.31,3.61-1.08,3.61-2.47V45.28c0-1.28-1-2-2.61-2A5.28,5.28,0,0,0,9.87,44.4a2.17,2.17,0,0,1-1.28.46,2,2,0,0,1-2-2,2,2,0,0,1,.74-1.53,8.89,8.89,0,0,1,5.9-2c4.09,0,6.87,2.1,6.87,5.88v0.06c0,3.61-2.5,5.08-5.59,5.71l-0.09.51a1.59,1.59,0,0,1-1.53,1.39H12.68Zm0,1.87a2.39,2.39,0,0,1,2.47,2.41v0.06a2.39,2.39,0,0,1-2.47,2.41,2.39,2.39,0,0,1-2.47-2.41V57.11A2.39,2.39,0,0,1,12.68,54.7Z" transform="translate(12.8 0.78)"/><path class="cls-2" d="M106.72,69.37h-0.06l-6.19,9.29-6.19-9.29H75.76a9.29,9.29,0,0,1-9.29-9.29V38.41a9.29,9.29,0,0,1,9.29-9.29h31A9.29,9.29,0,0,1,116,38.41V60.09A9.29,9.29,0,0,1,106.72,69.37Z" transform="translate(12.8 0.78)"/><path class="cls-4" d="M91.06,52.83a1.56,1.56,0,0,1-1.53-1.39l-0.28-1.93a1.4,1.4,0,0,1,1.31-1.7c2.47-.31,3.61-1.08,3.61-2.47V45.28c0-1.28-1-2-2.61-2a5.28,5.28,0,0,0-3.29,1.13,2.17,2.17,0,0,1-1.28.46,2,2,0,0,1-2-2,2,2,0,0,1,.74-1.53,8.89,8.89,0,0,1,5.9-2c4.09,0,6.87,2.1,6.87,5.88v0.06c0,3.61-2.5,5.08-5.59,5.71l-0.09.51a1.59,1.59,0,0,1-1.53,1.39H91.06Zm0,1.87a2.39,2.39,0,0,1,2.47,2.41v0.06a2.47,2.47,0,0,1-4.94,0V57.11A2.39,2.39,0,0,1,91.06,54.7Z" transform="translate(12.8 0.78)"/><path class="cls-5" d="M72.44,62.92H60.22L52.08,75.14,43.94,62.92H31.72A12.22,12.22,0,0,1,19.51,50.71V22.21A12.21,12.21,0,0,1,31.72,10H72.44A12.21,12.21,0,0,1,84.65,22.21v28.5A12.22,12.22,0,0,1,72.44,62.92Z" transform="translate(12.8 0.78)"/><path class="cls-6" d="M51.94,42.45a2.46,2.46,0,0,1-2.42-2.19l-0.45-3a2.21,2.21,0,0,1,2.06-2.69c3.89-.49,5.69-1.7,5.69-3.9V30.54c0-2-1.52-3.18-4.12-3.18a8.33,8.33,0,0,0-5.19,1.79,3.42,3.42,0,0,1-2,.72,3.17,3.17,0,0,1-3.13-3.13,3.13,3.13,0,0,1,1.16-2.42,14,14,0,0,1,9.31-3.22c6.44,0,10.83,3.31,10.83,9.27v0.09c0,5.69-3.94,8-8.82,9l-0.13.81a2.5,2.5,0,0,1-2.42,2.19H51.94Zm0,3a3.77,3.77,0,0,1,3.89,3.81V49.3a3.9,3.9,0,0,1-7.79,0V49.21A3.77,3.77,0,0,1,51.94,45.4Z" transform="translate(12.8 0.78)"/></svg>